<?xml version="1.0" encoding="UTF-8"?>
<svg width="752pt" height="752pt" version="1.1" viewBox="0 0 752 752" xmlns="http://www.w3.org/2000/svg">
 <path d="m587.63 312.04c-0.007812-0.058594-0.003906-0.11328-0.019531-0.17578-0.007813-0.03125-0.015625-0.066406-0.023437-0.097656-0.03125-0.12891-0.097657-0.24609-0.14844-0.375-0.09375-0.25391-0.17969-0.51562-0.31641-0.75391-0.050782-0.089843-0.11719-0.16016-0.17578-0.24609-0.070312-0.097657-0.14062-0.19531-0.21875-0.28906-0.11328-0.14844-0.21484-0.29688-0.33984-0.42969-0.11328-0.11328-0.26172-0.20312-0.38281-0.30859-0.16406-0.13281-0.30859-0.28906-0.49219-0.39844l-104.71-64.609c-0.35156-0.29297-0.75-0.53906-1.1758-0.72266l-104.88-64.703c-1.5195-0.9375-3.4492-0.9375-4.9727 0l-210.73 130.03c-1.3984 0.86328-2.25 2.3867-2.25 4.0312v130.03c0 1.6445 0.85156 3.168 2.25 4.0352l210.73 130.04c0.027344 0.019531 0.0625 0.023438 0.09375 0.042969s0.058594 0.046875 0.089844 0.066406c0.21875 0.11719 0.45312 0.1875 0.68359 0.27344 0.11719 0.046876 0.22266 0.11719 0.34766 0.15234 0.019531 0.003906 0.039062 0.003906 0.058593 0.007813 0.37891 0.097656 0.77344 0.15234 1.1602 0.15625 0.019531 0 0.039062 0.007812 0.0625 0.007812 0.19531 0 0.38672-0.050781 0.57812-0.074219 0.19922-0.023437 0.39844-0.023437 0.59375-0.074218 0.019532-0.003906 0.039063-0.019532 0.0625-0.023438 0.125-0.03125 0.23828-0.097656 0.35547-0.14062 0.23828-0.085937 0.48438-0.15625 0.69922-0.28516 0.003906 0 0.007812 0 0.015625-0.003906 0.03125-0.019531 0.058594-0.046875 0.089844-0.066407 0.027343-0.019531 0.0625-0.023437 0.09375-0.042968l210.75-130.05c1.3984-0.86328 2.25-2.3867 2.25-4.0312l-0.007813-130.02c0-0.32812-0.0625-0.64062-0.125-0.95312zm-220.1 128.34-95.883 59.16v-118.9l95.891-59.156v118.9zm9.4727-124.74 95.918-59.176v118.89l-95.918 59.184zm0 130.02 95.918-59.18v118.91l-95.918 59.191zm105.39 53.883v-118.91l95.887-59.16v118.9z"/>
</svg>
